<mxfile host="app.diagrams.net" agent="Mozilla/5.0 (Windows NT 10.0; Win64; x64) AppleWebKit/537.36 (KHTML, like Gecko) Chrome/133.0.0.0 Safari/537.36" version="24.8.6">
  <diagram id="R2lEEEUBdFMjLlhIrx00" name="Page-1">
    <mxGraphModel dx="955" dy="475" grid="1" gridSize="10" guides="1" tooltips="1" connect="1" arrows="1" fold="1" page="1" pageScale="1" pageWidth="850" pageHeight="1100" math="0" shadow="0" extFonts="Permanent Marker^https://fonts.googleapis.com/css?family=Permanent+Marker">
      <root>
        <mxCell id="0" />
        <mxCell id="1" parent="0" />
        <mxCell id="7tSbbNv6KK8ht2XHrTkI-1" value="Customer" style="rounded=0;whiteSpace=wrap;html=1;" vertex="1" parent="1">
          <mxGeometry x="120" y="120" width="120" height="60" as="geometry" />
        </mxCell>
        <mxCell id="7tSbbNv6KK8ht2XHrTkI-2" value="&amp;nbsp;Vendor" style="rounded=0;whiteSpace=wrap;html=1;" vertex="1" parent="1">
          <mxGeometry x="580" y="100" width="120" height="60" as="geometry" />
        </mxCell>
        <mxCell id="7tSbbNv6KK8ht2XHrTkI-4" value="Food Item" style="rounded=0;whiteSpace=wrap;html=1;" vertex="1" parent="1">
          <mxGeometry x="140" y="600" width="120" height="60" as="geometry" />
        </mxCell>
        <mxCell id="7tSbbNv6KK8ht2XHrTkI-5" value="Order" style="rounded=0;whiteSpace=wrap;html=1;" vertex="1" parent="1">
          <mxGeometry x="600" y="600" width="120" height="60" as="geometry" />
        </mxCell>
        <mxCell id="7tSbbNv6KK8ht2XHrTkI-6" value="Order Details" style="rounded=0;whiteSpace=wrap;html=1;" vertex="1" parent="1">
          <mxGeometry x="365" y="340" width="120" height="60" as="geometry" />
        </mxCell>
        <mxCell id="7tSbbNv6KK8ht2XHrTkI-7" value="name" style="ellipse;whiteSpace=wrap;html=1;" vertex="1" parent="1">
          <mxGeometry x="480" y="30" width="90" height="40" as="geometry" />
        </mxCell>
        <mxCell id="7tSbbNv6KK8ht2XHrTkI-8" value="vendor_id" style="ellipse;whiteSpace=wrap;html=1;" vertex="1" parent="1">
          <mxGeometry x="460" y="80" width="90" height="40" as="geometry" />
        </mxCell>
        <mxCell id="7tSbbNv6KK8ht2XHrTkI-9" value="email" style="ellipse;whiteSpace=wrap;html=1;" vertex="1" parent="1">
          <mxGeometry x="580" y="30" width="90" height="40" as="geometry" />
        </mxCell>
        <mxCell id="7tSbbNv6KK8ht2XHrTkI-10" value="password" style="ellipse;whiteSpace=wrap;html=1;" vertex="1" parent="1">
          <mxGeometry x="680" y="30" width="90" height="40" as="geometry" />
        </mxCell>
        <mxCell id="7tSbbNv6KK8ht2XHrTkI-11" value="restaurant name" style="ellipse;whiteSpace=wrap;html=1;" vertex="1" parent="1">
          <mxGeometry x="730" y="80" width="100" height="40" as="geometry" />
        </mxCell>
        <mxCell id="7tSbbNv6KK8ht2XHrTkI-13" value="location" style="ellipse;whiteSpace=wrap;html=1;" vertex="1" parent="1">
          <mxGeometry x="735" y="130" width="90" height="40" as="geometry" />
        </mxCell>
        <mxCell id="7tSbbNv6KK8ht2XHrTkI-15" value="contact" style="ellipse;whiteSpace=wrap;html=1;" vertex="1" parent="1">
          <mxGeometry x="735" y="180" width="90" height="40" as="geometry" />
        </mxCell>
        <mxCell id="7tSbbNv6KK8ht2XHrTkI-17" value="" style="endArrow=none;html=1;rounded=0;entryX=0;entryY=0.75;entryDx=0;entryDy=0;exitX=1;exitY=0.5;exitDx=0;exitDy=0;" edge="1" parent="1" source="7tSbbNv6KK8ht2XHrTkI-8" target="7tSbbNv6KK8ht2XHrTkI-2">
          <mxGeometry width="50" height="50" relative="1" as="geometry">
            <mxPoint x="400" y="210" as="sourcePoint" />
            <mxPoint x="450" y="160" as="targetPoint" />
          </mxGeometry>
        </mxCell>
        <mxCell id="7tSbbNv6KK8ht2XHrTkI-18" value="" style="endArrow=none;html=1;rounded=0;entryX=0;entryY=0.25;entryDx=0;entryDy=0;exitX=1;exitY=1;exitDx=0;exitDy=0;" edge="1" parent="1" source="7tSbbNv6KK8ht2XHrTkI-7" target="7tSbbNv6KK8ht2XHrTkI-2">
          <mxGeometry width="50" height="50" relative="1" as="geometry">
            <mxPoint x="520" y="230" as="sourcePoint" />
            <mxPoint x="560" y="265" as="targetPoint" />
          </mxGeometry>
        </mxCell>
        <mxCell id="7tSbbNv6KK8ht2XHrTkI-19" value="" style="endArrow=none;html=1;rounded=0;exitX=0.5;exitY=1;exitDx=0;exitDy=0;entryX=0.377;entryY=-0.033;entryDx=0;entryDy=0;entryPerimeter=0;" edge="1" parent="1" source="7tSbbNv6KK8ht2XHrTkI-9" target="7tSbbNv6KK8ht2XHrTkI-2">
          <mxGeometry width="50" height="50" relative="1" as="geometry">
            <mxPoint x="570" y="120" as="sourcePoint" />
            <mxPoint x="610" y="130" as="targetPoint" />
          </mxGeometry>
        </mxCell>
        <mxCell id="7tSbbNv6KK8ht2XHrTkI-20" value="" style="endArrow=none;html=1;rounded=0;entryX=0.657;entryY=-0.033;entryDx=0;entryDy=0;exitX=0;exitY=1;exitDx=0;exitDy=0;entryPerimeter=0;" edge="1" parent="1" source="7tSbbNv6KK8ht2XHrTkI-10" target="7tSbbNv6KK8ht2XHrTkI-2">
          <mxGeometry width="50" height="50" relative="1" as="geometry">
            <mxPoint x="580" y="130" as="sourcePoint" />
            <mxPoint x="620" y="165" as="targetPoint" />
          </mxGeometry>
        </mxCell>
        <mxCell id="7tSbbNv6KK8ht2XHrTkI-21" value="" style="endArrow=none;html=1;rounded=0;entryX=1;entryY=0.5;entryDx=0;entryDy=0;exitX=0;exitY=0.5;exitDx=0;exitDy=0;" edge="1" parent="1" source="7tSbbNv6KK8ht2XHrTkI-11" target="7tSbbNv6KK8ht2XHrTkI-2">
          <mxGeometry width="50" height="50" relative="1" as="geometry">
            <mxPoint x="590" y="140" as="sourcePoint" />
            <mxPoint x="630" y="175" as="targetPoint" />
          </mxGeometry>
        </mxCell>
        <mxCell id="7tSbbNv6KK8ht2XHrTkI-22" value="" style="endArrow=none;html=1;rounded=0;entryX=1.003;entryY=0.887;entryDx=0;entryDy=0;exitX=0;exitY=0.5;exitDx=0;exitDy=0;entryPerimeter=0;" edge="1" parent="1" source="7tSbbNv6KK8ht2XHrTkI-13" target="7tSbbNv6KK8ht2XHrTkI-2">
          <mxGeometry width="50" height="50" relative="1" as="geometry">
            <mxPoint x="600" y="150" as="sourcePoint" />
            <mxPoint x="640" y="185" as="targetPoint" />
          </mxGeometry>
        </mxCell>
        <mxCell id="7tSbbNv6KK8ht2XHrTkI-23" value="" style="endArrow=none;html=1;rounded=0;entryX=0;entryY=0.5;entryDx=0;entryDy=0;exitX=0.75;exitY=1;exitDx=0;exitDy=0;" edge="1" parent="1" source="7tSbbNv6KK8ht2XHrTkI-2" target="7tSbbNv6KK8ht2XHrTkI-15">
          <mxGeometry width="50" height="50" relative="1" as="geometry">
            <mxPoint x="610" y="160" as="sourcePoint" />
            <mxPoint x="650" y="195" as="targetPoint" />
          </mxGeometry>
        </mxCell>
        <mxCell id="7tSbbNv6KK8ht2XHrTkI-24" value="name" style="ellipse;whiteSpace=wrap;html=1;" vertex="1" parent="1">
          <mxGeometry x="155" y="710" width="90" height="40" as="geometry" />
        </mxCell>
        <mxCell id="7tSbbNv6KK8ht2XHrTkI-25" value="vendor_id" style="ellipse;whiteSpace=wrap;html=1;" vertex="1" parent="1">
          <mxGeometry x="20" y="660" width="90" height="40" as="geometry" />
        </mxCell>
        <mxCell id="7tSbbNv6KK8ht2XHrTkI-26" value="food_id" style="ellipse;whiteSpace=wrap;html=1;" vertex="1" parent="1">
          <mxGeometry x="20" y="600" width="90" height="40" as="geometry" />
        </mxCell>
        <mxCell id="7tSbbNv6KK8ht2XHrTkI-27" value="price" style="ellipse;whiteSpace=wrap;html=1;" vertex="1" parent="1">
          <mxGeometry x="290" y="670" width="90" height="40" as="geometry" />
        </mxCell>
        <mxCell id="7tSbbNv6KK8ht2XHrTkI-30" value="" style="endArrow=none;html=1;rounded=0;exitX=1;exitY=0.5;exitDx=0;exitDy=0;entryX=0;entryY=0.5;entryDx=0;entryDy=0;" edge="1" parent="1" source="7tSbbNv6KK8ht2XHrTkI-26" target="7tSbbNv6KK8ht2XHrTkI-4">
          <mxGeometry width="50" height="50" relative="1" as="geometry">
            <mxPoint x="390" y="530" as="sourcePoint" />
            <mxPoint x="440" y="480" as="targetPoint" />
          </mxGeometry>
        </mxCell>
        <mxCell id="7tSbbNv6KK8ht2XHrTkI-31" value="" style="endArrow=none;html=1;rounded=0;exitX=1;exitY=0.5;exitDx=0;exitDy=0;entryX=0.003;entryY=0.9;entryDx=0;entryDy=0;entryPerimeter=0;" edge="1" parent="1" source="7tSbbNv6KK8ht2XHrTkI-25" target="7tSbbNv6KK8ht2XHrTkI-4">
          <mxGeometry width="50" height="50" relative="1" as="geometry">
            <mxPoint x="120" y="630" as="sourcePoint" />
            <mxPoint x="150" y="640" as="targetPoint" />
          </mxGeometry>
        </mxCell>
        <mxCell id="7tSbbNv6KK8ht2XHrTkI-32" value="" style="endArrow=none;html=1;rounded=0;exitX=0.238;exitY=0.12;exitDx=0;exitDy=0;entryX=0.25;entryY=1;entryDx=0;entryDy=0;exitPerimeter=0;" edge="1" parent="1" source="7tSbbNv6KK8ht2XHrTkI-24" target="7tSbbNv6KK8ht2XHrTkI-4">
          <mxGeometry width="50" height="50" relative="1" as="geometry">
            <mxPoint x="130" y="640" as="sourcePoint" />
            <mxPoint x="160" y="650" as="targetPoint" />
          </mxGeometry>
        </mxCell>
        <mxCell id="7tSbbNv6KK8ht2XHrTkI-33" value="" style="endArrow=none;html=1;rounded=0;exitX=1;exitY=1;exitDx=0;exitDy=0;entryX=0;entryY=0.5;entryDx=0;entryDy=0;" edge="1" parent="1" source="7tSbbNv6KK8ht2XHrTkI-4" target="7tSbbNv6KK8ht2XHrTkI-27">
          <mxGeometry width="50" height="50" relative="1" as="geometry">
            <mxPoint x="140" y="650" as="sourcePoint" />
            <mxPoint x="170" y="660" as="targetPoint" />
          </mxGeometry>
        </mxCell>
        <mxCell id="7tSbbNv6KK8ht2XHrTkI-37" value="order_id" style="ellipse;whiteSpace=wrap;html=1;" vertex="1" parent="1">
          <mxGeometry x="485" y="620" width="90" height="40" as="geometry" />
        </mxCell>
        <mxCell id="7tSbbNv6KK8ht2XHrTkI-39" value="customer_id" style="ellipse;whiteSpace=wrap;html=1;" vertex="1" parent="1">
          <mxGeometry x="520" y="680" width="90" height="40" as="geometry" />
        </mxCell>
        <mxCell id="7tSbbNv6KK8ht2XHrTkI-40" value="vendor_id" style="ellipse;whiteSpace=wrap;html=1;" vertex="1" parent="1">
          <mxGeometry x="620" y="680" width="90" height="40" as="geometry" />
        </mxCell>
        <mxCell id="7tSbbNv6KK8ht2XHrTkI-41" value="order_date" style="ellipse;whiteSpace=wrap;html=1;" vertex="1" parent="1">
          <mxGeometry x="730" y="680" width="90" height="40" as="geometry" />
        </mxCell>
        <mxCell id="7tSbbNv6KK8ht2XHrTkI-42" value="total amount" style="ellipse;whiteSpace=wrap;html=1;" vertex="1" parent="1">
          <mxGeometry x="750" y="620" width="90" height="40" as="geometry" />
        </mxCell>
        <mxCell id="7tSbbNv6KK8ht2XHrTkI-45" value="" style="endArrow=none;html=1;rounded=0;exitX=1;exitY=0;exitDx=0;exitDy=0;entryX=-0.003;entryY=0.406;entryDx=0;entryDy=0;entryPerimeter=0;" edge="1" parent="1" source="7tSbbNv6KK8ht2XHrTkI-37" target="7tSbbNv6KK8ht2XHrTkI-5">
          <mxGeometry width="50" height="50" relative="1" as="geometry">
            <mxPoint x="530" y="570" as="sourcePoint" />
            <mxPoint x="560" y="600" as="targetPoint" />
          </mxGeometry>
        </mxCell>
        <mxCell id="7tSbbNv6KK8ht2XHrTkI-46" value="" style="endArrow=none;html=1;rounded=0;exitX=0;exitY=1;exitDx=0;exitDy=0;entryX=0.641;entryY=0.025;entryDx=0;entryDy=0;entryPerimeter=0;" edge="1" parent="1" source="7tSbbNv6KK8ht2XHrTkI-5" target="7tSbbNv6KK8ht2XHrTkI-39">
          <mxGeometry width="50" height="50" relative="1" as="geometry">
            <mxPoint x="280" y="680" as="sourcePoint" />
            <mxPoint x="310" y="710" as="targetPoint" />
          </mxGeometry>
        </mxCell>
        <mxCell id="7tSbbNv6KK8ht2XHrTkI-47" value="" style="endArrow=none;html=1;rounded=0;exitX=0.419;exitY=0.042;exitDx=0;exitDy=0;entryX=0.453;entryY=0.994;entryDx=0;entryDy=0;entryPerimeter=0;exitPerimeter=0;" edge="1" parent="1" source="7tSbbNv6KK8ht2XHrTkI-40" target="7tSbbNv6KK8ht2XHrTkI-5">
          <mxGeometry width="50" height="50" relative="1" as="geometry">
            <mxPoint x="290" y="690" as="sourcePoint" />
            <mxPoint x="320" y="720" as="targetPoint" />
          </mxGeometry>
        </mxCell>
        <mxCell id="7tSbbNv6KK8ht2XHrTkI-48" value="" style="endArrow=none;html=1;rounded=0;exitX=0;exitY=0;exitDx=0;exitDy=0;" edge="1" parent="1" source="7tSbbNv6KK8ht2XHrTkI-41" target="7tSbbNv6KK8ht2XHrTkI-5">
          <mxGeometry width="50" height="50" relative="1" as="geometry">
            <mxPoint x="300" y="700" as="sourcePoint" />
            <mxPoint x="330" y="730" as="targetPoint" />
          </mxGeometry>
        </mxCell>
        <mxCell id="7tSbbNv6KK8ht2XHrTkI-49" value="" style="endArrow=none;html=1;rounded=0;exitX=1;exitY=0.5;exitDx=0;exitDy=0;entryX=0;entryY=1;entryDx=0;entryDy=0;" edge="1" parent="1" source="7tSbbNv6KK8ht2XHrTkI-5" target="7tSbbNv6KK8ht2XHrTkI-42">
          <mxGeometry width="50" height="50" relative="1" as="geometry">
            <mxPoint x="310" y="710" as="sourcePoint" />
            <mxPoint x="340" y="740" as="targetPoint" />
          </mxGeometry>
        </mxCell>
        <mxCell id="7tSbbNv6KK8ht2XHrTkI-51" value="email" style="ellipse;whiteSpace=wrap;html=1;" vertex="1" parent="1">
          <mxGeometry x="150" y="40" width="90" height="40" as="geometry" />
        </mxCell>
        <mxCell id="7tSbbNv6KK8ht2XHrTkI-52" value="name" style="ellipse;whiteSpace=wrap;html=1;" vertex="1" parent="1">
          <mxGeometry x="50" y="70" width="90" height="40" as="geometry" />
        </mxCell>
        <mxCell id="7tSbbNv6KK8ht2XHrTkI-53" value="phone" style="ellipse;whiteSpace=wrap;html=1;" vertex="1" parent="1">
          <mxGeometry x="245" y="70" width="90" height="40" as="geometry" />
        </mxCell>
        <mxCell id="7tSbbNv6KK8ht2XHrTkI-54" value="customer_id" style="ellipse;whiteSpace=wrap;html=1;" vertex="1" parent="1">
          <mxGeometry x="10" y="130" width="90" height="40" as="geometry" />
        </mxCell>
        <mxCell id="7tSbbNv6KK8ht2XHrTkI-55" value="password" style="ellipse;whiteSpace=wrap;html=1;" vertex="1" parent="1">
          <mxGeometry x="270" y="130" width="90" height="40" as="geometry" />
        </mxCell>
        <mxCell id="7tSbbNv6KK8ht2XHrTkI-56" value="" style="endArrow=none;html=1;rounded=0;entryX=0;entryY=0.5;entryDx=0;entryDy=0;exitX=1;exitY=0.5;exitDx=0;exitDy=0;" edge="1" parent="1" source="7tSbbNv6KK8ht2XHrTkI-1" target="7tSbbNv6KK8ht2XHrTkI-55">
          <mxGeometry width="50" height="50" relative="1" as="geometry">
            <mxPoint x="560" y="110" as="sourcePoint" />
            <mxPoint x="590" y="155" as="targetPoint" />
          </mxGeometry>
        </mxCell>
        <mxCell id="7tSbbNv6KK8ht2XHrTkI-57" value="" style="endArrow=none;html=1;rounded=0;entryX=0.626;entryY=0.975;entryDx=0;entryDy=0;entryPerimeter=0;exitX=0.592;exitY=-0.006;exitDx=0;exitDy=0;exitPerimeter=0;" edge="1" parent="1" source="7tSbbNv6KK8ht2XHrTkI-1" target="7tSbbNv6KK8ht2XHrTkI-51">
          <mxGeometry width="50" height="50" relative="1" as="geometry">
            <mxPoint x="200" y="130" as="sourcePoint" />
            <mxPoint x="600" y="165" as="targetPoint" />
          </mxGeometry>
        </mxCell>
        <mxCell id="7tSbbNv6KK8ht2XHrTkI-58" value="" style="endArrow=none;html=1;rounded=0;entryX=0.917;entryY=0;entryDx=0;entryDy=0;exitX=0.03;exitY=0.725;exitDx=0;exitDy=0;exitPerimeter=0;entryPerimeter=0;" edge="1" parent="1" source="7tSbbNv6KK8ht2XHrTkI-53" target="7tSbbNv6KK8ht2XHrTkI-1">
          <mxGeometry width="50" height="50" relative="1" as="geometry">
            <mxPoint x="580" y="130" as="sourcePoint" />
            <mxPoint x="610" y="175" as="targetPoint" />
          </mxGeometry>
        </mxCell>
        <mxCell id="7tSbbNv6KK8ht2XHrTkI-59" value="" style="endArrow=none;html=1;rounded=0;entryX=0;entryY=0.25;entryDx=0;entryDy=0;exitX=0.5;exitY=1;exitDx=0;exitDy=0;" edge="1" parent="1" source="7tSbbNv6KK8ht2XHrTkI-52" target="7tSbbNv6KK8ht2XHrTkI-1">
          <mxGeometry width="50" height="50" relative="1" as="geometry">
            <mxPoint x="590" y="140" as="sourcePoint" />
            <mxPoint x="620" y="185" as="targetPoint" />
          </mxGeometry>
        </mxCell>
        <mxCell id="7tSbbNv6KK8ht2XHrTkI-60" value="" style="endArrow=none;html=1;rounded=0;entryX=0;entryY=1;entryDx=0;entryDy=0;exitX=1;exitY=1;exitDx=0;exitDy=0;" edge="1" parent="1" source="7tSbbNv6KK8ht2XHrTkI-54" target="7tSbbNv6KK8ht2XHrTkI-1">
          <mxGeometry width="50" height="50" relative="1" as="geometry">
            <mxPoint x="600" y="150" as="sourcePoint" />
            <mxPoint x="630" y="195" as="targetPoint" />
          </mxGeometry>
        </mxCell>
        <mxCell id="7tSbbNv6KK8ht2XHrTkI-61" value="order_details_id" style="ellipse;whiteSpace=wrap;html=1;" vertex="1" parent="1">
          <mxGeometry x="260" y="400" width="90" height="40" as="geometry" />
        </mxCell>
        <mxCell id="7tSbbNv6KK8ht2XHrTkI-62" value="order_id" style="ellipse;whiteSpace=wrap;html=1;" vertex="1" parent="1">
          <mxGeometry x="350" y="430" width="90" height="40" as="geometry" />
        </mxCell>
        <mxCell id="7tSbbNv6KK8ht2XHrTkI-64" value="food_id" style="ellipse;whiteSpace=wrap;html=1;" vertex="1" parent="1">
          <mxGeometry x="450" y="430" width="90" height="40" as="geometry" />
        </mxCell>
        <mxCell id="7tSbbNv6KK8ht2XHrTkI-65" value="quantity" style="ellipse;whiteSpace=wrap;html=1;" vertex="1" parent="1">
          <mxGeometry x="500" y="370" width="90" height="40" as="geometry" />
        </mxCell>
        <mxCell id="7tSbbNv6KK8ht2XHrTkI-66" value="price" style="ellipse;whiteSpace=wrap;html=1;" vertex="1" parent="1">
          <mxGeometry x="500" y="300" width="90" height="40" as="geometry" />
        </mxCell>
        <mxCell id="7tSbbNv6KK8ht2XHrTkI-67" value="" style="endArrow=none;html=1;rounded=0;entryX=0;entryY=0.5;entryDx=0;entryDy=0;exitX=0.5;exitY=0;exitDx=0;exitDy=0;" edge="1" parent="1" source="7tSbbNv6KK8ht2XHrTkI-6" target="7tSbbNv6KK8ht2XHrTkI-66">
          <mxGeometry width="50" height="50" relative="1" as="geometry">
            <mxPoint x="680" y="170" as="sourcePoint" />
            <mxPoint x="745" y="210" as="targetPoint" />
          </mxGeometry>
        </mxCell>
        <mxCell id="7tSbbNv6KK8ht2XHrTkI-68" value="" style="endArrow=none;html=1;rounded=0;entryX=0;entryY=0.5;entryDx=0;entryDy=0;exitX=1.012;exitY=0.635;exitDx=0;exitDy=0;exitPerimeter=0;" edge="1" parent="1" source="7tSbbNv6KK8ht2XHrTkI-6" target="7tSbbNv6KK8ht2XHrTkI-65">
          <mxGeometry width="50" height="50" relative="1" as="geometry">
            <mxPoint x="690" y="180" as="sourcePoint" />
            <mxPoint x="755" y="220" as="targetPoint" />
          </mxGeometry>
        </mxCell>
        <mxCell id="7tSbbNv6KK8ht2XHrTkI-69" value="" style="endArrow=none;html=1;rounded=0;entryX=0.5;entryY=0;entryDx=0;entryDy=0;exitX=0.691;exitY=0.998;exitDx=0;exitDy=0;exitPerimeter=0;" edge="1" parent="1" source="7tSbbNv6KK8ht2XHrTkI-6" target="7tSbbNv6KK8ht2XHrTkI-64">
          <mxGeometry width="50" height="50" relative="1" as="geometry">
            <mxPoint x="700" y="190" as="sourcePoint" />
            <mxPoint x="765" y="230" as="targetPoint" />
          </mxGeometry>
        </mxCell>
        <mxCell id="7tSbbNv6KK8ht2XHrTkI-70" value="" style="endArrow=none;html=1;rounded=0;entryX=0.25;entryY=1;entryDx=0;entryDy=0;exitX=0.385;exitY=-0.025;exitDx=0;exitDy=0;exitPerimeter=0;" edge="1" parent="1" source="7tSbbNv6KK8ht2XHrTkI-62" target="7tSbbNv6KK8ht2XHrTkI-6">
          <mxGeometry width="50" height="50" relative="1" as="geometry">
            <mxPoint x="710" y="200" as="sourcePoint" />
            <mxPoint x="775" y="240" as="targetPoint" />
          </mxGeometry>
        </mxCell>
        <mxCell id="7tSbbNv6KK8ht2XHrTkI-71" value="" style="endArrow=none;html=1;rounded=0;entryX=0;entryY=0.5;entryDx=0;entryDy=0;exitX=0.5;exitY=0;exitDx=0;exitDy=0;" edge="1" parent="1" source="7tSbbNv6KK8ht2XHrTkI-61" target="7tSbbNv6KK8ht2XHrTkI-6">
          <mxGeometry width="50" height="50" relative="1" as="geometry">
            <mxPoint x="720" y="210" as="sourcePoint" />
            <mxPoint x="785" y="250" as="targetPoint" />
          </mxGeometry>
        </mxCell>
      </root>
    </mxGraphModel>
  </diagram>
</mxfile>
